<?xml version="1.0" encoding="UTF-8"?>
<svg version="1.1" xmlns="http://www.w3.org/2000/svg" width="50" height="50">
<path d="M0 0 C16.5 0 33 0 50 0 C50 16.5 50 33 50 50 C33.5 50 17 50 0 50 C0 33.5 0 17 0 0 Z " fill="#327ACE" transform="translate(0,0)"/>
<path d="M0 0 C0.74886475 0.00523682 1.49772949 0.01047363 2.26928711 0.01586914 C3.07817383 0.0190918 3.88706055 0.02231445 4.72045898 0.02563477 C5.5705957 0.03401367 6.42073242 0.04239258 7.29663086 0.05102539 C8.15063477 0.05553711 9.00463867 0.06004883 9.88452148 0.06469727 C12.00108749 0.07652166 14.11761771 0.0944577 16.23413086 0.11352539 C16.72913086 1.10352539 16.72913086 1.10352539 17.23413086 2.11352539 C15.91413086 2.44352539 14.59413086 2.77352539 13.23413086 3.11352539 C13.94976352 5.12974869 13.94976352 5.12974869 15.23413086 7.11352539 C17.28413957 7.91881429 17.28413957 7.91881429 19.23413086 8.11352539 C18.90413086 8.77352539 18.57413086 9.43352539 18.23413086 10.11352539 C18.89413086 10.77352539 19.55413086 11.43352539 20.23413086 12.11352539 C19.24413086 12.77352539 18.25413086 13.43352539 17.23413086 14.11352539 C17.72913086 15.59852539 17.72913086 15.59852539 18.23413086 17.11352539 C19.55413086 17.11352539 20.87413086 17.11352539 22.23413086 17.11352539 C22.23413086 16.12352539 22.23413086 15.13352539 22.23413086 14.11352539 C22.89413086 14.11352539 23.55413086 14.11352539 24.23413086 14.11352539 C24.23413086 15.10352539 24.23413086 16.09352539 24.23413086 17.11352539 C24.89413086 17.11352539 25.55413086 17.11352539 26.23413086 17.11352539 C26.56413086 15.79352539 26.89413086 14.47352539 27.23413086 13.11352539 C27.23413086 14.76352539 27.23413086 16.41352539 27.23413086 18.11352539 C27.89413086 18.11352539 28.55413086 18.11352539 29.23413086 18.11352539 C29.56413086 16.46352539 29.89413086 14.81352539 30.23413086 13.11352539 C31.04663086 14.80102539 31.04663086 14.80102539 31.23413086 17.11352539 C29.07276816 19.62537933 27.21450647 21.62333758 24.23413086 23.11352539 C21.8116968 23.22428757 19.41890246 23.277619 16.99584961 23.28149414 C15.91917778 23.28648674 15.91917778 23.28648674 14.820755 23.2915802 C13.30010621 23.29664652 11.77944629 23.29898862 10.25878906 23.29882812 C7.94113601 23.30100705 5.62396481 23.31914437 3.30639648 23.33813477 C1.82788248 23.34107033 0.34936623 23.34305404 -1.12915039 23.34399414 C-1.81890457 23.35117966 -2.50865875 23.35836517 -3.21931458 23.36576843 C-8.2186807 23.34224445 -12.02917579 22.85021874 -15.64086914 19.23852539 C-16.76586914 17.11352539 -16.76586914 17.11352539 -16.45336914 14.86352539 C-16.22649414 14.28602539 -15.99961914 13.70852539 -15.76586914 13.11352539 C-15.31211914 14.08290039 -14.85836914 15.05227539 -14.39086914 16.05102539 C-13.10800693 19.18432121 -13.10800693 19.18432121 -10.76586914 20.11352539 C-10.76586914 19.45352539 -10.76586914 18.79352539 -10.76586914 18.11352539 C-9.11586914 18.11352539 -7.46586914 18.11352539 -5.76586914 18.11352539 C-5.82774414 16.99977539 -5.88961914 15.88602539 -5.95336914 14.73852539 C-5.89149414 13.54227539 -5.82961914 12.34602539 -5.76586914 11.11352539 C-4.77586914 10.45352539 -3.78586914 9.79352539 -2.76586914 9.11352539 C-1.77586914 9.44352539 -0.78586914 9.77352539 0.23413086 10.11352539 C-0.09586914 10.77352539 -0.42586914 11.43352539 -0.76586914 12.11352539 C-1.75586914 12.44352539 -2.74586914 12.77352539 -3.76586914 13.11352539 C-3.76586914 14.43352539 -3.76586914 15.75352539 -3.76586914 17.11352539 C-0.46586914 17.44352539 2.83413086 17.77352539 6.23413086 18.11352539 C6.23413086 16.79352539 6.23413086 15.47352539 6.23413086 14.11352539 C6.89413086 14.11352539 7.55413086 14.11352539 8.23413086 14.11352539 C8.23413086 15.43352539 8.23413086 16.75352539 8.23413086 18.11352539 C10.21413086 17.78352539 12.19413086 17.45352539 14.23413086 17.11352539 C14.23413086 15.79352539 14.23413086 14.47352539 14.23413086 13.11352539 C12.91413086 12.45352539 11.59413086 11.79352539 10.23413086 11.11352539 C9.90413086 11.77352539 9.57413086 12.43352539 9.23413086 13.11352539 C8.57413086 12.78352539 7.91413086 12.45352539 7.23413086 12.11352539 C7.23413086 11.45352539 7.23413086 10.79352539 7.23413086 10.11352539 C6.24413086 9.78352539 5.25413086 9.45352539 4.23413086 9.11352539 C4.85288086 8.86602539 5.47163086 8.61852539 6.10913086 8.36352539 C8.58481773 6.907239 9.18538088 5.73540033 10.23413086 3.11352539 C8.91413086 2.78352539 7.59413086 2.45352539 6.23413086 2.11352539 C5.90413086 2.77352539 5.57413086 3.43352539 5.23413086 4.11352539 C4.24681344 5.45627708 3.24818343 6.79084812 2.23413086 8.11352539 C1.57413086 7.78352539 0.91413086 7.45352539 0.23413086 7.11352539 C0.56413086 5.79352539 0.89413086 4.47352539 1.23413086 3.11352539 C-0.08586914 2.45352539 -1.40586914 1.79352539 -2.76586914 1.11352539 C-1.76586914 0.11352539 -1.76586914 0.11352539 0 0 Z " fill="#2668BE" transform="translate(17.765869140625,26.886474609375)"/>
<path d="M0 0 C2.375 1.625 2.375 1.625 4 4 C4.25 7.25 4.25 7.25 4 10 C4.99 10 5.98 10 7 10 C7.02687279 11.81242052 7.04633715 13.62495233 7.0625 15.4375 C7.07410156 16.44683594 7.08570312 17.45617187 7.09765625 18.49609375 C7 21 7 21 6 22 C4.66956375 22.0983721 3.33406656 22.13078592 2 22.1328125 C1.195625 22.13410156 0.39125 22.13539062 -0.4375 22.13671875 C-1.283125 22.13285156 -2.12875 22.12898438 -3 22.125 C-3.845625 22.12886719 -4.69125 22.13273437 -5.5625 22.13671875 C-6.366875 22.13542969 -7.17125 22.13414063 -8 22.1328125 C-8.7425 22.13168457 -9.485 22.13055664 -10.25 22.12939453 C-12 22 -12 22 -13 21 C-13.07226502 19.14712498 -13.0838122 17.29166122 -13.0625 15.4375 C-13.05347656 14.42558594 -13.04445313 13.41367187 -13.03515625 12.37109375 C-13.02355469 11.58863281 -13.01195312 10.80617188 -13 10 C-12.01 10 -11.02 10 -10 10 C-10.0825 9.0925 -10.165 8.185 -10.25 7.25 C-10 4 -10 4 -8.375 1.625 C-5.28813568 -0.48706506 -3.6717087 -0.61195145 0 0 Z " fill="#F1F4F8" transform="translate(28,4)"/>
<path d="M0 0 C0.33 0.66 0.66 1.32 1 2 C2.32 2 3.64 2 5 2 C5 1.34 5 0.68 5 0 C6.65 0.66 8.3 1.32 10 2 C9.67 3.65 9.34 5.3 9 7 C7.02 7 5.04 7 3 7 C3 5.68 3 4.36 3 3 C2.34 3 1.68 3 1 3 C1 4.32 1 5.64 1 7 C-2.3 7 -5.6 7 -9 7 C-9.33 5.35 -9.66 3.7 -10 2 C-6.846632 1.29925156 -4.27275026 1 -1 1 C-1.33 2.32 -1.66 3.64 -2 5 C-1.34 5 -0.68 5 0 5 C0 3.35 0 1.7 0 0 Z " fill="#7FA4D7" transform="translate(23,38)"/>
<path d="M0 0 C2.0625 0.4375 2.0625 0.4375 4 1 C4 2.32 4 3.64 4 5 C2.35 5.66 0.7 6.32 -1 7 C-0.34 7.33 0.32 7.66 1 8 C1 8.66 1 9.32 1 10 C1.66 10.33 2.32 10.66 3 11 C2.01 11 1.02 11 0 11 C-0.33 11.99 -0.66 12.98 -1 14 C-1.66 14 -2.32 14 -3 14 C-2.67 12.68 -2.34 11.36 -2 10 C-3.32 10 -4.64 10 -6 10 C-6.33 10.66 -6.66 11.32 -7 12 C-7.33 11.34 -7.66 10.68 -8 10 C-7.67 9.34 -7.34 8.68 -7 8 C-9.475 7.01 -9.475 7.01 -12 6 C-12 4.35 -12 2.7 -12 1 C-11.608125 1.66 -11.21625 2.32 -10.8125 3 C-9.1557738 5.22663597 -9.1557738 5.22663597 -6.5 5.5 C-3.8581295 5.22999551 -3.8581295 5.22999551 -2.25 3.0625 C-1.8375 2.381875 -1.425 1.70125 -1 1 C-0.67 0.67 -0.34 0.34 0 0 Z " fill="#3272C3" transform="translate(24,29)"/>
<path d="M0 0 C3.29714793 0.32971479 4.6226839 0.6226839 7 3 C7 4.32 7 5.64 7 7 C3.7 7 0.4 7 -3 7 C-2.25 2.25 -2.25 2.25 0 0 Z " fill="#3480D6" transform="translate(23,6)"/>
<path d="M0 0 C0.33 0.66 0.66 1.32 1 2 C2.32 2 3.64 2 5 2 C5 1.34 5 0.68 5 0 C7.475 0.99 7.475 0.99 10 2 C9.67 3.65 9.34 5.3 9 7 C7.02 7 5.04 7 3 7 C3 5.68 3 4.36 3 3 C2.34 3 1.68 3 1 3 C0.67 3.99 0.34 4.98 0 6 C0 4.02 0 2.04 0 0 Z " fill="#98B5DE" transform="translate(23,38)"/>
<path d="M0 0 C1.6875 2.53125 1.6875 2.53125 3.375 5.0625 C5.10201244 7.38260423 5.10201244 7.38260423 9 9 C6.03 9 3.06 9 0 9 C0 6.03 0 3.06 0 0 Z " fill="#E7EDF5" transform="translate(0,41)"/>
<path d="M0 0 C0.33 0 0.66 0 1 0 C1 2.97 1 5.94 1 9 C-1.64 9 -4.28 9 -7 9 C-6.21625 8.443125 -5.4325 7.88625 -4.625 7.3125 C-1.91295142 4.92331435 -1.03866457 3.39926587 0 0 Z " fill="#E8EDF5" transform="translate(49,41)"/>
<path d="M0 0 C2.475 0.495 2.475 0.495 5 1 C4.67 2.65 4.34 4.3 4 6 C2.68 6 1.36 6 0 6 C0 4.02 0 2.04 0 0 Z " fill="#99B7DF" transform="translate(7,38)"/>
<path d="M0 0 C2.97 0 5.94 0 9 0 C7.02 0.99 7.02 0.99 5 2 C2.3606338 4.23330986 1.6410465 5.717907 0 9 C0 6.03 0 3.06 0 0 Z " fill="#EBF2F8" transform="translate(0,0)"/>
<path d="M0 0 C0.66 0.33 1.32 0.66 2 1 C1.34 3.31 0.68 5.62 0 8 C3.3 8 6.6 8 10 8 C10 8.33 10 8.66 10 9 C6.37 9 2.74 9 -1 9 C-1.625 6.1875 -1.625 6.1875 -2 3 C-1.34 2.01 -0.68 1.02 0 0 Z " fill="#BFD6EF" transform="translate(20,5)"/>
<path d="M0 0 C2.97 0 5.94 0 9 0 C9 2.31 9 4.62 9 7 C7.53515625 5.76302083 6.0703125 4.52604167 4.60546875 3.2890625 C3.1344954 2.10798901 1.56962206 1.04641471 0 0 Z " fill="#EEF3F9" transform="translate(41,0)"/>
<path d="M0 0 C2.0625 0.4375 2.0625 0.4375 4 1 C4 2.32 4 3.64 4 5 C2.125 5.625 2.125 5.625 0 6 C-0.66 5.34 -1.32 4.68 -2 4 C-1 1 -1 1 0 0 Z " fill="#C7D9EE" transform="translate(24,29)"/>
<path d="M0 0 C2.0625 0.4375 2.0625 0.4375 4 1 C4 2.32 4 3.64 4 5 C2.125 5.625 2.125 5.625 0 6 C-0.66 5.34 -1.32 4.68 -2 4 C-1 1 -1 1 0 0 Z " fill="#C7D8EE" transform="translate(15,29)"/>
<path d="M0 0 C2.75 -0.3125 2.75 -0.3125 6 0 C8.375 2.5 8.375 2.5 10 5 C9.443125 4.855625 8.88625 4.71125 8.3125 4.5625 C6.67668918 4.16460007 5.02877548 3.81500485 3.375 3.5 C1 3 1 3 -1 2 C-0.67 1.34 -0.34 0.68 0 0 Z " fill="#E9F1F9" transform="translate(22,4)"/>
<path d="M0 0 C2.475 0.99 2.475 0.99 5 2 C5 3.32 5 4.64 5 6 C4.34 5.67 3.68 5.34 3 5 C3.33 4.34 3.66 3.68 4 3 C3.34 3 2.68 3 2 3 C2 3.99 2 4.98 2 6 C1.34 6 0.68 6 0 6 C0 4.02 0 2.04 0 0 Z " fill="#BED1EA" transform="translate(28,38)"/>
<path d="M0 0 C-1.423125 0.12375 -1.423125 0.12375 -2.875 0.25 C-4.421875 0.62125 -4.421875 0.62125 -6 1 C-7.22527948 2.95021083 -7.22527948 2.95021083 -8 5 C-8.99 5.33 -9.98 5.66 -11 6 C-9.84826645 3.53199953 -8.95216435 1.95216435 -7 0 C-3.99340864 -1.066855 -3.14820941 -1.04940314 0 0 Z " fill="#438DDF" transform="translate(12,1)"/>
<path d="M0 0 C1.32 0.66 2.64 1.32 4 2 C3.34 3.32 2.68 4.64 2 6 C1.01 5.67 0.02 5.34 -1 5 C-0.67 3.35 -0.34 1.7 0 0 Z " fill="#B1C7E6" transform="translate(14,39)"/>
<path d="M0 0 C0 1.32 0 2.64 0 4 C-1.875 4.625 -1.875 4.625 -4 5 C-4.66 4.34 -5.32 3.68 -6 3 C-3.375 0 -3.375 0 0 0 Z " fill="#D9E4F3" transform="translate(37,30)"/>
<path d="M0 0 C0.99 0.33 1.98 0.66 3 1 C3 2.32 3 3.64 3 5 C2.01 5.33 1.02 5.66 0 6 C-0.38218767 4.34385343 -0.71395102 2.67542976 -1 1 C-0.67 0.67 -0.34 0.34 0 0 Z " fill="#B5CAE7" transform="translate(35,39)"/>
<path d="M0 0 C1.32 0 2.64 0 4 0 C3.67 1.98 3.34 3.96 3 6 C2.34 6 1.68 6 1 6 C0.67 4.02 0.34 2.04 0 0 Z " fill="#2569BF" transform="translate(23,17)"/>
</svg>
